# Exported from Wings 3D 1.4.1
mtllib cloud_horizon3.mtl
o cloud_horizon3
#18 vertices, 30 faces
v 1.60187108 -0.56532379 0.24966405
v 1.73534032 0.11189100 0.26493904
v -1.14456462 -0.72734584 -0.87051142
v -1.30743985 -0.10238631 -0.97407050
v 0.51501263 0.64707360 -1.33221520
v 0.53959786 -0.21956118 -1.27139694
v -0.37248158 -0.40562780 -1.37358133
v -0.39706681 0.46100698 -1.43439958
v 1.27632936 0.56977782 -0.75246765
v 1.30091460 -0.29685696 -0.69164940
v 0.11182598 -0.29046130 -1.38269528
v 8.7240743e-2 0.57617348 -1.44351354
v -0.85273730 0.25208659 -1.31127544
v -0.73981609 -0.53413833 -1.21882782
v 1.59290730 0.40149540 -0.28263160
v 1.53846530 -0.37042938 -0.25985996
v 0.97871371 -0.21789435 -1.04754098
v 0.95412848 0.64874043 -1.10835924
vt -0.50000000 0.25742423
vt -0.50000000 0.49750349
vt -0.27055457 0.25742423
vt -0.27055457 0.49750349
vt -4.1109144e-2 0.25742423
vt -4.1109144e-2 0.49750349
vt 0.22944543 0.25742423
vt 0.22944543 0.49750349
vt 0.50000000 0.25742423
vt 0.50000000 0.49750349
vt 0.77055457 0.25742423
vt 0.77055457 0.49750349
vt 1.04110914 0.25742423
vt 1.04110914 0.49750349
vt 1.27055457 0.25742423
vt 1.27055457 0.49750349
vt 1.50000000 0.25742423
vt 1.50000000 0.49750349
vn -0.96387976 0.18565951 0.19096164
vn -0.96179868 0.13109813 0.24032598
vn -0.96179868 0.13109813 0.24032598
vn -0.54888269 -0.27391341 -0.78974631
vn 0.54888269 0.27391341 0.78974631
vn 0.49714508 0.17141544 0.85056659
vn -0.49714508 -0.17141544 -0.85056659
vn -0.54888269 -0.27391341 -0.78974631
vn 0.54888269 0.27391341 0.78974631
vn -0.45376720 4.9567015e-2 0.88974066
vn -0.26067843 6.0224111e-2 0.96354544
vn -0.45376720 4.9567015e-2 0.88974066
vn 0.45376720 -4.9567015e-2 -0.88974066
vn 0.26067843 -6.0224111e-2 -0.96354544
vn -0.26067843 6.0224111e-2 0.96354544
vn 0.26067843 -6.0224111e-2 -0.96354544
vn -0.45376720 4.9567015e-2 0.88974066
vn 0.45376720 -4.9567015e-2 -0.88974066
vn 0.45376720 -4.9567015e-2 -0.88974066
vn 0.26067843 -6.0224111e-2 -0.96354544
vn -0.26067843 6.0224111e-2 0.96354544
vn 2.1111013e-3 7.0064755e-2 0.99754021
vn -0.28282566 -0.11632364 -0.95209162
vn -2.1111013e-3 -7.0064755e-2 -0.99754021
vn -0.28282566 -0.11632364 -0.95209162
vn 0.36459373 7.5474949e-2 0.92810288
vn 2.1111013e-3 7.0064755e-2 0.99754021
vn -2.1111013e-3 -7.0064755e-2 -0.99754021
vn 0.28193646 0.10937579 0.95317825
vn -2.1111013e-3 -7.0064755e-2 -0.99754021
vn -0.22810525 -7.4597549e-2 -0.97077454
vn 2.1111013e-3 7.0064755e-2 0.99754021
vn 0.28193646 0.10937579 0.95317825
vn 0.82652966 -1.6038884e-2 -0.56266461
vn -0.84670970 4.1831309e-2 0.53040816
vn -0.73814912 2.6367924e-2 0.67412210
vn -0.73814912 2.6367924e-2 0.67412210
vn -0.84670970 4.1831309e-2 0.53040816
vn 0.73814912 -2.6367924e-2 -0.67412210
vn 0.73814912 -2.6367924e-2 -0.67412210
vn 0.84844968 -4.5928694e-2 -0.52727952
vn -0.73814912 2.6367924e-2 0.67412210
vn -0.87546914 9.0731293e-3 0.48318885
vn 0.73814912 -2.6367924e-2 -0.67412210
vn 0.84844968 -4.5928694e-2 -0.52727952
vn 2.1111013e-3 7.0064755e-2 0.99754021
vn -2.1111013e-3 -7.0064755e-2 -0.99754021
vn -0.26067843 6.0224111e-2 0.96354544
vn 0.26067843 -6.0224111e-2 -0.96354544
vn -0.26067843 6.0224111e-2 0.96354544
vn -2.1111013e-3 -7.0064755e-2 -0.99754021
vn 2.1111013e-3 7.0064755e-2 0.99754021
vn -2.1111013e-3 -7.0064755e-2 -0.99754021
vn -0.26067843 6.0224111e-2 0.96354544
vn 0.26067843 -6.0224111e-2 -0.96354544
vn 0.26067843 -6.0224111e-2 -0.96354544
vn 2.1111013e-3 7.0064755e-2 0.99754021
vn 0.49714508 0.17141544 0.85056659
vn 0.19685164 0.14233487 0.97004650
vn -0.49714508 -0.17141544 -0.85056659
vn -0.28282566 -0.11632364 -0.95209162
vn -0.28282566 -0.11632364 -0.95209162
vn 0.49714508 0.17141544 0.85056659
vn 0.28193646 0.10937579 0.95317825
vn -0.49714508 -0.17141544 -0.85056659
vn -0.33610807 -0.15745828 -0.92856785
vn 0.28193646 0.10937579 0.95317825
vn -0.54888269 -0.27391341 -0.78974631
vn 0.54888269 0.27391341 0.78974631
vn -0.95450647 7.5826450e-2 0.28838819
vn 0.84844968 -4.5928694e-2 -0.52727952
vn -0.81445347 7.4416731e-2 0.57543696
vn 0.84844968 -4.5928694e-2 -0.52727952
vn -0.96179868 0.13109813 0.24032598
vn -0.84670970 4.1831309e-2 0.53040816
vn -0.84670970 4.1831309e-2 0.53040816
vn -0.96179868 0.13109813 0.24032598
vn 0.86814168 -7.5697896e-2 -0.49050979
vn -0.45376720 4.9567015e-2 0.88974066
vn -0.73814912 2.6367924e-2 0.67412210
vn -0.45376720 4.9567015e-2 0.88974066
vn -0.73814912 2.6367924e-2 0.67412210
vn 0.73814912 -2.6367924e-2 -0.67412210
vn 0.73814912 -2.6367924e-2 -0.67412210
vn 0.45376720 -4.9567015e-2 -0.88974066
vn -0.45376720 4.9567015e-2 0.88974066
vn -0.73814912 2.6367924e-2 0.67412210
vn 0.73814912 -2.6367924e-2 -0.67412210
vn 0.45376720 -4.9567015e-2 -0.88974066
vn 0.45376720 -4.9567015e-2 -0.88974066
g cloud_horizon3_cloud_horizon
usemtl cloud_horizon
s 1
f 4//8 14//68 3//4
f 5//14 6//20 12//56
f 6//18 18//89 17//85
f 7//24 8//30 11//51
f 8//31 7//25 13//62
f 9//40 17//84 18//88
f 10//45 15//73 16//78
f 11//49 12//55 6//16
f 12//53 11//47 8//28
f 13//60 14//65 4//7
f 14//66 13//61 7//23
f 15//71 10//41 9//34
f 17//83 9//39 10//44
f 18//90 6//19 5//13
s 2
f 2/18/3 16/15/77 1/17/1
f 3/1/5 14/3/69 4/2/9
f 4/2/6 14/3/63 13/4/58
f 5/10/15 11/7/50 6/9/21
f 5/10/10 17/11/79 18/12/86
f 6/9/17 17/11/81 5/10/12
f 8/6/32 11/7/52 12/8/57
f 8/6/33 14/3/67 7/5/26
f 9/14/35 16/15/75 15/16/72
f 9/14/37 17/11/82 10/13/42
f 11/7/46 8/6/27 7/5/22
f 12/8/54 11/7/48 5/10/11
f 13/4/59 14/3/64 8/6/29
f 15/16/70 16/15/74 2/18/2
f 16/15/76 9/14/38 10/13/43
f 18/12/87 17/11/80 9/14/36
