# Exported from Wings 3D 1.4.1
mtllib cloud_upper1.mtl
o cloud_upper1
#18 vertices, 20 faces
v 1.07740155 0.15768379 0.75106641
v 1.39847364 5.5149297e-2 3.0383017e-2
v -1.05679551 0.15110826 -9.8696888e-2
v -1.14830089 4.7302596e-2 -0.98365434
v 0.16953822 0.78801890 -0.74621775
v 5.4754863e-2 0.89118898 5.6602669e-2
v -0.64623382 0.72693155 -0.19162516
v -0.53145046 0.62376147 -0.99444559
v 0.84663252 0.62800739 -0.44574070
v 0.73184917 0.73117747 0.35707972
v 0.40075628 0.84090492 0.20322083
v 0.51553963 0.73773484 -0.59959960
v -0.89824995 0.38977990 -1.00476492
v -0.90988893 0.49326777 -0.16087599
v -0.30159009 0.83895623 -7.4727373e-2
v -0.18680674 0.73578615 -0.87754780
v 1.18061354 0.39662693 -0.19211578
v 0.96268582 0.49947922 0.56963613
vt -0.50000000 0.48345244
vt -0.50000000 0.99523644
vt -0.27055457 0.48345244
vt -0.27055457 0.99523644
vt -4.1109144e-2 0.48345244
vt -4.1109144e-2 0.99523644
vt 0.22944543 0.48345244
vt 0.22944543 0.99523644
vt 0.50000000 0.48345244
vt 0.50000000 0.99523644
vt 0.77055457 0.48345244
vt 0.77055457 0.99523644
vt 1.04110914 0.48345244
vt 1.04110914 0.99523644
vt 1.27055457 0.48345244
vt 1.27055457 0.99523644
vt 1.50000000 0.48345244
vt 1.50000000 0.99523644
vn -0.89179283 -0.40566272 -0.20035794
vn 0.89179283 0.40566272 0.20035794
vn -0.73981070 -0.62848669 -0.24017620
vn 0.73981070 0.62848669 0.24017620
vn -0.73981070 -0.62848669 -0.24017620
vn 0.73981070 0.62848669 0.24017620
vn 0.92113531 -0.38461060 5.9869979e-2
vn -0.92113531 0.38461060 -5.9869979e-2
vn -0.80713954 0.59018919 1.4229648e-2
vn 0.80713954 -0.59018919 -1.4229648e-2
vn -0.80713954 0.59018919 1.4229648e-2
vn 0.80713954 -0.59018919 -1.4229648e-2
vn -4.6099514e-2 -0.99160110 0.12083911
vn -4.6099514e-2 -0.99160110 0.12083911
vn -4.6099514e-2 -0.99160110 0.12083911
vn -4.6099514e-2 -0.99160110 0.12083911
vn -4.6099514e-2 -0.99160110 0.12083911
vn -4.6099514e-2 -0.99160110 0.12083911
vn 0.43476900 -0.88742835 0.15312360
vn 0.43476900 -0.88742835 0.15312360
vn 0.43476900 -0.88742835 0.15312360
vn 0.43476900 -0.88742835 0.15312360
vn 0.39493336 -0.90238316 0.17243049
vn 0.39493336 -0.90238316 0.17243049
vn -0.46623461 -0.88341876 4.6867781e-2
vn -0.46623461 -0.88341876 4.6867781e-2
vn -0.49042849 -0.87127513 1.8961900e-2
vn -0.49042849 -0.87127513 1.8961900e-2
vn -0.49042849 -0.87127513 1.8961900e-2
vn -0.49042849 -0.87127513 1.8961900e-2
vn -0.26475308 -0.96051110 8.5581730e-2
vn -0.26475308 -0.96051110 8.5581730e-2
vn -0.26475308 -0.96051110 8.5581730e-2
vn -0.26475308 -0.96051110 8.5581730e-2
vn -0.26475308 -0.96051110 8.5581730e-2
vn -0.26475308 -0.96051110 8.5581730e-2
vn 0.92113531 -0.38461060 5.9869979e-2
vn -0.92113531 0.38461060 -5.9869979e-2
vn 0.59845370 -0.78856546 0.14148388
vn 0.59845370 -0.78856546 0.14148388
vn -0.80713954 0.59018919 1.4229648e-2
vn 0.80713954 -0.59018919 -1.4229648e-2
vn 0.92113531 -0.38461060 5.9869979e-2
vn -0.92113531 0.38461060 -5.9869979e-2
vn 0.66644144 -0.73884785 9.9798078e-2
vn 0.17504749 -0.97305503 0.15007429
vn 0.17504749 -0.97305503 0.15007429
vn 0.17504749 -0.97305503 0.15007429
vn 0.17504749 -0.97305503 0.15007429
vn 0.17504749 -0.97305503 0.15007429
vn 0.17504749 -0.97305503 0.15007429
vn -0.89179283 -0.40566272 -0.20035794
vn 0.89179283 0.40566272 0.20035794
vn -0.62376532 -0.78087103 -3.4018534e-2
vn -0.62376532 -0.78087103 -3.4018534e-2
vn -0.73981070 -0.62848669 -0.24017620
vn 0.73981070 0.62848669 0.24017620
vn -0.89179283 -0.40566272 -0.20035794
vn 0.89179283 0.40566272 0.20035794
vn -0.66334413 -0.74294769 -8.9461155e-2
g cloud_upper1_clouds_upper1
usemtl clouds_upper1
s 1
f 3//9 13//41 4//11
f 14//44 13//38 3//8
s 2
f 1//2 17//53 18//59
f 2//6 17//57 1//4
s 3
f 1/17/3 17/16/56 2/18/5
f 3/1/7 13/4/37 14/3/43
f 4/2/12 13/4/42 3/1/10
f 5/10/14 6/9/18 16/8/50
f 5/10/13 12/12/35 6/9/17
f 6/9/15 12/12/33 11/11/31
f 7/5/19 16/8/49 15/7/47
f 8/6/23 7/5/20 13/4/39
f 8/6/24 16/8/51 7/5/21
f 9/14/25 10/13/29 12/12/36
f 9/14/26 17/16/55 10/13/30
f 10/13/28 17/16/54 18/15/60
f 11/11/32 12/12/34 10/13/27
f 14/3/45 13/4/40 7/5/22
f 15/7/46 16/8/48 6/9/16
f 18/15/58 17/16/52 1/17/1
