# Exported from Wings 3D 1.4.1
mtllib cloud_lower4.mtl
o cloud_lower4
#18 vertices, 28 faces
v 0.36992074 -0.31847050 1.08393878
v 0.75725303 -0.24071463 1.04921169
v -0.66698645 -0.18342400 -1.02520487
v -0.40404026 -8.9468125e-2 -1.31294220
v 0.22513559 0.91814683 -0.16733127
v -0.28131183 0.78441495 8.3809237e-2
v -0.59215672 0.66576985 -0.56485440
v -8.5709308e-2 0.79950174 -0.81599491
v 0.56144324 0.71521677 0.50035981
v 5.4995824e-2 0.58148488 0.75150032
v -0.31731730 0.41671194 -1.16235281
v -0.69288588 0.30187889 -0.87562772
v 0.70359315 0.27362622 0.91591833
v 0.24858797 0.16913898 1.04106367
v -0.45437115 0.75710059 -0.24474735
v 5.2076264e-2 0.89083248 -0.49588787
v -0.10826428 0.70999935 0.42963907
v 0.39818313 0.84373124 0.17849855
vt -0.50000000 2.8643754e-14
vt -0.50000000 1.00000000
vt -0.27055457 2.4980018e-14
vt -0.27055457 1.00000000
vt -4.1109144e-2 2.1316282e-14
vt -4.1109144e-2 1.00000000
vt 0.22944543 1.7819080e-14
vt 0.22944543 1.00000000
vt 0.50000000 1.4321877e-14
vt 0.50000000 1.00000000
vt 0.77055457 1.0880186e-14
vt 0.77055457 1.00000000
vt 1.04110914 7.4384943e-15
vt 1.04110914 1.00000000
vt 1.27055457 3.7192471e-15
vt 1.27055457 1.00000000
vt 1.50000000 0.0000000e+0
vt 1.50000000 1.00000000
vn -0.23197416 -0.14233262 -0.96225226
vn 0.23197416 0.14233262 0.96225226
vn -3.5625820e-2 -0.25418842 -0.96649834
vn 3.5625820e-2 0.25418842 0.96649834
vn -3.5625820e-2 -0.25418842 -0.96649834
vn 3.5625820e-2 0.25418842 0.96649834
vn 0.63228098 -0.19717899 0.74922707
vn -0.63228098 0.19717899 -0.74922707
vn -0.75067035 0.30323744 -0.58697622
vn 0.75067035 -0.30323744 0.58697622
vn -0.75067035 0.30323744 -0.58697622
vn 0.75067035 -0.30323744 0.58697622
vn 0.17922714 -0.97138729 -0.15583441
vn 0.17922714 -0.97138729 -0.15583441
vn 0.17922714 -0.97138729 -0.15583441
vn 0.17922714 -0.97138729 -0.15583441
vn 0.17922714 -0.97138729 -0.15583441
vn 0.17922714 -0.97138729 -0.15583441
vn 0.44738953 -0.73357780 0.51157230
vn -0.31415798 0.94001221 -0.13297294
vn 0.31415798 -0.94001221 0.13297294
vn -0.31415798 0.94001221 -0.13297294
vn -0.44738953 0.73357780 -0.51157230
vn -0.58931763 0.61277924 -0.52650389
vn 0.31415798 -0.94001221 0.13297294
vn 0.58931763 -0.61277924 0.52650389
vn 0.44738953 -0.73357780 0.51157230
vn -0.31415798 0.94001221 -0.13297294
vn -0.44738953 0.73357780 -0.51157230
vn 0.31415798 -0.94001221 0.13297294
vn 4.8501351e-2 -0.91889733 -0.39150391
vn -0.15805689 -0.70320802 -0.69319297
vn -4.8501351e-2 0.91889733 0.39150391
vn 0.15805689 0.70320802 0.69319297
vn -4.8501351e-2 0.91889733 0.39150391
vn -8.1872312e-2 -0.59821739 -0.79714044
vn 8.1872312e-2 0.59821739 0.79714044
vn 4.8501351e-2 -0.91889733 -0.39150391
vn 4.8501351e-2 -0.91889733 -0.39150391
vn -0.15805689 -0.70320802 -0.69319297
vn 0.15805689 0.70320802 0.69319297
vn -4.8501351e-2 0.91889733 0.39150391
vn 0.63228098 -0.19717899 0.74922707
vn -0.63228098 0.19717899 -0.74922707
vn 0.44738953 -0.73357780 0.51157230
vn -0.44738953 0.73357780 -0.51157230
vn -0.58931763 0.61277924 -0.52650389
vn 0.58931763 -0.61277924 0.52650389
vn -0.75067035 0.30323744 -0.58697622
vn 0.75067035 -0.30323744 0.58697622
vn 0.63228098 -0.19717899 0.74922707
vn -0.63228098 0.19717899 -0.74922707
vn -0.58931763 0.61277924 -0.52650389
vn 0.58931763 -0.61277924 0.52650389
vn -0.23197416 -0.14233262 -0.96225226
vn 0.23197416 0.14233262 0.96225226
vn -8.1872312e-2 -0.59821739 -0.79714044
vn 8.1872312e-2 0.59821739 0.79714044
vn -0.15805689 -0.70320802 -0.69319297
vn -3.5625820e-2 -0.25418842 -0.96649834
vn 3.5625820e-2 0.25418842 0.96649834
vn 0.15805689 0.70320802 0.69319297
vn -0.23197416 -0.14233262 -0.96225226
vn 0.23197416 0.14233262 0.96225226
vn -8.1872312e-2 -0.59821739 -0.79714044
vn 8.1872312e-2 0.59821739 0.79714044
vn 0.23504638 -0.97102904 -4.3079131e-2
vn -0.31415798 0.94001221 -0.13297294
vn 0.31415798 -0.94001221 0.13297294
vn 0.23504638 -0.97102904 -4.3079131e-2
vn -0.31415798 0.94001221 -0.13297294
vn 0.31415798 -0.94001221 0.13297294
vn 0.23504638 -0.97102904 -4.3079131e-2
vn -0.31415798 0.94001221 -0.13297294
vn 0.31415798 -0.94001221 0.13297294
vn 0.12057080 -0.95636881 -0.26612289
vn 4.8501351e-2 -0.91889733 -0.39150391
vn -4.8501351e-2 0.91889733 0.39150391
vn -4.8501351e-2 0.91889733 0.39150391
vn 0.12057080 -0.95636881 -0.26612289
vn 4.8501351e-2 -0.91889733 -0.39150391
vn 0.12057080 -0.95636881 -0.26612289
vn 4.8501351e-2 -0.91889733 -0.39150391
vn -4.8501351e-2 0.91889733 0.39150391
g cloud_lower4_clouds_lower2
usemtl clouds_lower2
s 1
f 1//2 13//56 14//64
f 2//6 13//61 1//4
f 3//9 11//49 4//11
f 7//24 11//47 12//53
f 8//28 7//22 16//74
f 9//34 10//41 13//62
f 10//42 9//35 17//79
f 11//46 7//23 8//29
f 12//52 11//44 3//8
f 14//66 13//58 10//37
f 15//68 16//71 7//20
f 18//84 17//78 9//33
s 2
f 1/17/3 13/16/60 2/18/5
f 3/1/7 11/4/43 12/3/51
f 4/2/12 11/4/50 3/1/10
f 5/10/14 6/9/18 16/8/73
f 5/10/13 18/12/82 6/9/17
f 6/9/15 18/12/80 17/11/76
f 7/5/21 16/8/72 15/7/69
f 8/6/27 7/5/19 11/4/45
f 8/6/30 16/8/75 7/5/25
f 9/14/31 10/13/39 18/12/83
f 9/14/32 13/16/59 10/13/40
f 10/13/36 13/16/57 14/15/65
f 12/3/54 11/4/48 7/5/26
f 14/15/63 13/16/55 1/17/1
f 15/7/67 16/8/70 6/9/16
f 17/11/77 18/12/81 10/13/38
