# Exported from Wings 3D 1.4.1
mtllib cloud_upper3.mtl
o cloud_upper3
#18 vertices, 20 faces
v 0.86167897 0.14272910 -0.75637014
v 0.33572689 0.27988955 -1.22121889
v -0.24646311 -0.18975903 0.97481293
v -0.98663836 -0.11687433 0.84463204
v -0.46045096 0.98055353 -0.11543298
v 0.17261271 0.87553095 0.18208184
v -0.18138656 0.54285012 0.70747663
v -0.81445022 0.64787270 0.40996181
v -9.8906290e-2 0.86256526 -0.70788902
v 0.53415737 0.75754268 -0.41037420
v 0.35766753 0.90074399 -9.5383342e-2
v -0.27539613 1.00576656 -0.39289816
v -0.89879266 0.29994161 0.63497130
v -0.21217321 0.21098797 0.84881916
v -1.0443150e-4 0.79339771 0.46354207
v -0.63316809 0.89842028 0.16602725
v 0.12016193 0.60566983 -0.95687957
v 0.69966980 0.48457832 -0.57569779
vt -0.50000000 4.5137781e-3
vt -0.50000000 0.48993067
vt -0.27055457 4.5137781e-3
vt -0.27055457 0.48993067
vt -4.1109144e-2 4.5137781e-3
vt -4.1109144e-2 0.48993067
vt 0.22944543 4.5137781e-3
vt 0.22944543 0.48993067
vt 0.50000000 4.5137781e-3
vt 0.50000000 0.48993067
vt 0.77055457 4.5137781e-3
vt 0.77055457 0.48993067
vt 1.04110914 4.5137781e-3
vt 1.04110914 0.48993067
vt 1.27055457 4.5137781e-3
vt 1.27055457 0.48993067
vt 1.50000000 4.5137781e-3
vt 1.50000000 0.48993067
vn -0.52911725 -0.57873627 0.62056366
vn 0.52911725 0.57873627 -0.62056366
vn -0.55944092 -0.71305829 0.42257986
vn 0.55944092 0.71305829 -0.42257986
vn -0.55944092 -0.71305829 0.42257986
vn 0.55944092 0.71305829 -0.42257986
vn 0.24591588 -0.30979982 -0.91844948
vn -0.24591588 0.30979982 0.91844948
vn -0.10875981 0.46489311 0.87866131
vn 0.10875981 -0.46489311 -0.87866131
vn -0.10875981 0.46489311 0.87866131
vn 0.10875981 -0.46489311 -0.87866131
vn -5.7009981e-2 -0.97331647 -0.22227214
vn -5.7009981e-2 -0.97331647 -0.22227214
vn -5.7009981e-2 -0.97331647 -0.22227214
vn -5.7009981e-2 -0.97331647 -0.22227214
vn -5.7009981e-2 -0.97331647 -0.22227214
vn -5.7009981e-2 -0.97331647 -0.22227214
vn 0.21559970 -0.62710006 -0.74850670
vn 0.21559970 -0.62710006 -0.74850670
vn 0.21559970 -0.62710006 -0.74850670
vn 0.21559970 -0.62710006 -0.74850670
vn 0.22512060 -0.66370946 -0.71330951
vn 0.22512060 -0.66370946 -0.71330951
vn -0.32366012 -0.86504131 0.38333752
vn -0.32366012 -0.86504131 0.38333752
vn -0.36386158 -0.83861653 0.40537276
vn -0.36386158 -0.83861653 0.40537276
vn -0.36386158 -0.83861653 0.40537276
vn -0.36386158 -0.83861653 0.40537276
vn -0.18996891 -0.98005983 5.8262659e-2
vn -0.18996891 -0.98005983 5.8262659e-2
vn -0.18996891 -0.98005983 5.8262659e-2
vn -0.18996891 -0.98005983 5.8262659e-2
vn -0.18996891 -0.98005983 5.8262659e-2
vn -0.18996891 -0.98005983 5.8262659e-2
vn 0.24591588 -0.30979982 -0.91844948
vn -0.24591588 0.30979982 0.91844948
vn 0.24932872 -0.48641391 -0.83739877
vn 0.24932872 -0.48641391 -0.83739877
vn -0.10875981 0.46489311 0.87866131
vn 0.10875981 -0.46489311 -0.87866131
vn 0.24591588 -0.30979982 -0.91844948
vn -0.24591588 0.30979982 0.91844948
vn 0.22505182 -0.39939349 -0.88872747
vn 7.9300346e-2 -0.87498675 -0.47760824
vn 7.9300346e-2 -0.87498675 -0.47760824
vn 7.9300346e-2 -0.87498675 -0.47760824
vn 7.9300346e-2 -0.87498675 -0.47760824
vn 7.9300346e-2 -0.87498675 -0.47760824
vn 7.9300346e-2 -0.87498675 -0.47760824
vn -0.52911725 -0.57873627 0.62056366
vn 0.52911725 0.57873627 -0.62056366
vn -0.43804207 -0.72389848 0.53300107
vn -0.43804207 -0.72389848 0.53300107
vn -0.55944092 -0.71305829 0.42257986
vn 0.55944092 0.71305829 -0.42257986
vn -0.52911725 -0.57873627 0.62056366
vn 0.52911725 0.57873627 -0.62056366
vn -0.50767353 -0.65018706 0.56526487
g cloud_upper3_clouds_upper2
usemtl clouds_upper2
s 1
f 1//2 17//53 18//59
f 2//6 17//57 1//4
f 3//9 13//41 4//11
f 14//44 13//38 3//8
s 2
f 1/17/3 17/16/56 2/18/5
f 3/1/7 13/4/37 14/3/43
f 4/2/12 13/4/42 3/1/10
f 5/10/14 6/9/18 16/8/50
f 5/10/13 12/12/35 6/9/17
f 6/9/15 12/12/33 11/11/31
f 7/5/19 16/8/49 15/7/47
f 8/6/23 7/5/20 13/4/39
f 8/6/24 16/8/51 7/5/21
f 9/14/25 10/13/29 12/12/36
f 9/14/26 17/16/55 10/13/30
f 10/13/28 17/16/54 18/15/60
f 11/11/32 12/12/34 10/13/27
f 14/3/45 13/4/40 7/5/22
f 15/7/46 16/8/48 6/9/16
f 18/15/58 17/16/52 1/17/1
