# Exported from Wings 3D 1.4.1
mtllib cloud_upper4.mtl
o cloud_upper4
#18 vertices, 20 faces
v -0.96361572 7.9060760e-2 -0.41732524
v -1.33931349 3.4395451e-2 0.20988363
v 1.18911701 6.4769757e-2 0.34040925
v 1.22957997 1.7341749e-2 1.11410141
v -9.7455929e-2 0.77196124 0.89468405
v 7.0161476e-2 0.81800789 0.19423354
v 0.76966193 0.65718278 0.41476137
v 0.60204453 0.61113613 1.11521188
v -0.78800721 0.62036404 0.62593138
v -0.62038981 0.66641070 -7.4519136e-2
v -0.27336990 0.77318212 6.0980666e-2
v -0.44098730 0.72713546 0.76143118
v 0.91978918 0.38485698 1.11721814
v 0.98336640 0.43159431 0.38014681
v 0.42165597 0.76856816 0.30562092
v 0.25403857 0.72252150 1.00607143
v -1.05968342 0.39799778 0.42046900
v -0.78802583 0.44335377 -0.24336069
vt -0.50000000 0.51699781
vt -0.50000000 0.99173553
vt -0.27055457 0.51699781
vt -0.27055457 0.99173553
vt -4.1109144e-2 0.51699781
vt -4.1109144e-2 0.99173553
vt 0.22944543 0.51699781
vt 0.22944543 0.99173553
vt 0.50000000 0.51699781
vt 0.50000000 0.99173553
vt 0.77055457 0.51699781
vt 0.77055457 0.99173553
vt 1.04110914 0.51699781
vt 1.04110914 0.99173553
vt 1.27055457 0.51699781
vt 1.27055457 0.99173553
vt 1.50000000 0.51699781
vt 1.50000000 0.99173553
vn 0.79983273 -0.52470630 0.29146340
vn -0.79983273 0.52470630 -0.29146340
vn 0.64257480 -0.68869214 0.33585825
vn -0.64257480 0.68869214 -0.33585825
vn 0.64257480 -0.68869214 0.33585825
vn -0.64257480 0.68869214 -0.33585825
vn -0.87213679 -0.47774752 -0.10552123
vn 0.87213679 0.47774752 0.10552123
vn 0.76459711 0.64450836 -4.7838014e-4
vn -0.76459711 -0.64450836 4.7838014e-4
vn 0.76459711 0.64450836 -4.7838014e-4
vn -0.76459711 -0.64450836 4.7838014e-4
vn 1.5633863e-2 -0.99796217 -6.1863493e-2
vn 1.5633863e-2 -0.99796217 -6.1863493e-2
vn 1.5633863e-2 -0.99796217 -6.1863493e-2
vn 1.5633863e-2 -0.99796217 -6.1863493e-2
vn 1.5633863e-2 -0.99796217 -6.1863493e-2
vn 1.5633863e-2 -0.99796217 -6.1863493e-2
vn -0.47085912 -0.87090046 -0.14079802
vn -0.47085912 -0.87090046 -0.14079802
vn -0.47085912 -0.87090046 -0.14079802
vn -0.47085912 -0.87090046 -0.14079802
vn -0.42390185 -0.89145589 -0.16004256
vn -0.42390185 -0.89145589 -0.16004256
vn 0.44753438 -0.89295638 4.8392989e-2
vn 0.44753438 -0.89295638 4.8392989e-2
vn 0.47702459 -0.87466613 8.6062138e-2
vn 0.47702459 -0.87466613 8.6062138e-2
vn 0.47702459 -0.87466613 8.6062138e-2
vn 0.47702459 -0.87466613 8.6062138e-2
vn 0.21710409 -0.97607206 -1.2212758e-2
vn 0.21710409 -0.97607206 -1.2212758e-2
vn 0.21710409 -0.97607206 -1.2212758e-2
vn 0.21710409 -0.97607206 -1.2212758e-2
vn 0.21710409 -0.97607206 -1.2212758e-2
vn 0.21710409 -0.97607206 -1.2212758e-2
vn -0.87213679 -0.47774752 -0.10552123
vn 0.87213679 0.47774752 0.10552123
vn -0.65338080 -0.74238802 -0.14816735
vn -0.65338080 -0.74238802 -0.14816735
vn 0.76459711 0.64450836 -4.7838014e-4
vn -0.76459711 -0.64450836 4.7838014e-4
vn -0.87213679 -0.47774752 -0.10552123
vn 0.87213679 0.47774752 0.10552123
vn -0.72995019 -0.67526518 -0.10578121
vn -0.18883366 -0.97590272 -0.10934230
vn -0.18883366 -0.97590272 -0.10934230
vn -0.18883366 -0.97590272 -0.10934230
vn -0.18883366 -0.97590272 -0.10934230
vn -0.18883366 -0.97590272 -0.10934230
vn -0.18883366 -0.97590272 -0.10934230
vn 0.79983273 -0.52470630 0.29146340
vn -0.79983273 0.52470630 -0.29146340
vn 0.64066409 -0.75063652 0.16153742
vn 0.64066409 -0.75063652 0.16153742
vn 0.64257480 -0.68869214 0.33585825
vn -0.64257480 0.68869214 -0.33585825
vn 0.79983273 -0.52470630 0.29146340
vn -0.79983273 0.52470630 -0.29146340
vn 0.68453042 -0.69076813 0.23293236
g cloud_upper4_clouds_upper2
usemtl clouds_upper2
s 1
f 1//2 17//53 18//59
f 2//6 17//57 1//4
f 3//9 13//41 4//11
f 14//44 13//38 3//8
s 2
f 1/17/3 17/16/56 2/18/5
f 3/1/7 13/4/37 14/3/43
f 4/2/12 13/4/42 3/1/10
f 5/10/14 6/9/18 16/8/50
f 5/10/13 12/12/35 6/9/17
f 6/9/15 12/12/33 11/11/31
f 7/5/19 16/8/49 15/7/47
f 8/6/23 7/5/20 13/4/39
f 8/6/24 16/8/51 7/5/21
f 9/14/25 10/13/29 12/12/36
f 9/14/26 17/16/55 10/13/30
f 10/13/28 17/16/54 18/15/60
f 11/11/32 12/12/34 10/13/27
f 14/3/45 13/4/40 7/5/22
f 15/7/46 16/8/48 6/9/16
f 18/15/58 17/16/52 1/17/1
