# Blender v2.79 (sub 0) OBJ File: ''
# www.blender.org
mtllib room.mtl
o cube.001_cube.001_skybox
v 3.731994 0.461440 4.769675
v -4.268006 8.461439 4.769676
v 3.731994 8.461439 4.769676
v 3.731994 8.461439 -3.230324
v -4.268006 0.461440 4.769675
v -4.268006 8.461439 -3.230324
v 3.731994 0.461440 -3.230325
v -4.268006 0.461440 -3.230325
vt 1.000000 1.000000
vt 0.000000 0.000000
vt 1.000000 0.000000
vt 1.000000 0.000000
vt 0.000000 1.000000
vt 0.000000 0.000000
vt 1.000000 0.000000
vt 0.000000 1.000000
vt 1.000000 1.000000
vt 0.000000 0.000000
vt 0.000000 0.000000
vt 1.000000 0.000000
vt 0.000000 1.000000
vt 0.000000 0.000000
vt 0.000000 1.000000
vt 1.000000 1.000000
vt 1.000000 1.000000
vt 0.000000 1.000000
vt 1.000000 0.000000
vt 1.000000 1.000000
vn 0.0000 0.0000 -1.0000
vn 0.0000 -1.0000 0.0000
vn -1.0000 0.0000 0.0000
vn 1.0000 -0.0000 0.0000
vn 0.0000 1.0000 0.0000
vn 0.0000 -0.0000 1.0000
g cube.001_cube.001_skybox_cube.001_cube.001_skybox_skybox
usemtl skybox
s 1
f 1/1/1 2/2/1 3/3/1
f 2/4/2 4/5/2 3/6/2
f 4/7/3 1/8/3 3/6/3
f 5/9/4 6/10/4 2/4/4
f 7/11/5 5/9/5 1/8/5
f 6/12/6 7/13/6 4/14/6
f 1/1/1 5/15/1 2/2/1
f 2/4/2 6/16/2 4/5/2
f 4/7/3 7/17/3 1/8/3
f 5/9/4 8/18/4 6/10/4
f 7/11/5 8/19/5 5/9/5
f 6/12/6 8/20/6 7/13/6
