# Exported from Wings 3D 1.4.1
mtllib grass.mtl
o Object03_sep10
#3 vertices, 1 faces
v -3.4968054e-3 0.25445602 -1.9505448e-2
v -2.4256285e-3 -8.6554539e-2 0.49484384
v -1.3775660e-3 -8.6554539e-2 -0.51338840
vt 0.10150000 -1.0000000e-4
vt 0.59170000 0.27610000
vt 1.05970000 0.0000000e+0
vn 0.99998837 4.7090241e-3 1.0394930e-3
vn 0.99998837 4.7090241e-3 1.0394930e-3
vn 0.99998837 4.7090241e-3 1.0394930e-3
g Object03_sep10_pirate_grass
usemtl pirate_grass
s 2
f 2/1/2 3/3/3 1/2/1
o Object03_sep9
#3 vertices, 1 faces
v -4.3443443e-3 0.25445602 -1.7403754e-2
v -2.2537966e-3 -8.6554539e-2 -0.51128924
v -3.3018591e-3 -8.6554539e-2 0.49694300
vt 0.10150000 -1.0000000e-4
vt 0.59170000 0.27610000
vt 1.05970000 0.0000000e+0
vn -0.99998876 -4.6248817e-3 -1.0394934e-3
vn -0.99998876 -4.6248817e-3 -1.0394934e-3
vn -0.99998876 -4.6248817e-3 -1.0394934e-3
g Object03_sep9_pirate_grass
usemtl pirate_grass
s 2
f 5/6/5 6/4/6 4/5/4
