# Exported from Wings 3D 1.4.1
mtllib skybox.mtl
o sphere1
#114 vertices, 224 faces
v 34.97267352 84.43150272 2.4207439e-16
v 32.31053726 84.43150272 13.38346274
v 24.72941460 84.43150272 24.72941460
v 13.38346274 84.43150272 32.31053726
v 6.1026760e-15 84.43150272 34.97267352
v -13.38346274 84.43150272 32.31053726
v -24.72941460 84.43150272 24.72941460
v -32.31053726 84.43150272 13.38346274
v -34.97267352 84.43150272 4.5249917e-15
v -32.31053726 84.43150272 -13.38346274
v -24.72941460 84.43150272 -24.72941460
v -13.38346274 84.43150272 -32.31053726
v -2.4631586e-15 84.43150272 -34.97267352
v 13.38346274 84.43150272 -32.31053726
v 24.72941460 84.43150272 -24.72941460
v 32.31053726 84.43150272 -13.38346274
v 64.62107452 64.62107452 2.4207439e-16
v 59.70208812 64.62107452 24.72941460
v 45.69400000 64.62107452 45.69400000
v 24.72941460 64.62107452 59.70208812
v 7.9181169e-15 64.62107452 64.62107452
v -24.72941460 64.62107452 59.70208812
v -45.69400000 64.62107452 45.69400000
v -59.70208812 64.62107452 24.72941460
v -64.62107452 64.62107452 8.1558736e-15
v -59.70208812 64.62107452 -24.72941460
v -45.69400000 64.62107452 -45.69400000
v -24.72941460 64.62107452 -59.70208812
v -7.9094815e-15 64.62107452 -64.62107452
v 24.72941460 64.62107452 -59.70208812
v 45.69400000 64.62107452 -45.69400000
v 59.70208812 64.62107452 -24.72941460
v 84.43150272 34.97267352 2.4207439e-16
v 78.00453726 34.97267352 32.31053726
v 59.70208812 34.97267352 59.70208812
v 32.31053726 34.97267352 78.00453726
v 9.1311558e-15 34.97267352 84.43150272
v -32.31053726 34.97267352 78.00453726
v -59.70208812 34.97267352 59.70208812
v -78.00453726 34.97267352 32.31053726
v -84.43150272 34.97267352 1.0581951e-14
v -78.00453726 34.97267352 -32.31053726
v -59.70208812 34.97267352 -59.70208812
v -32.31053726 34.97267352 -78.00453726
v -1.1548598e-14 34.97267352 -84.43150272
v 32.31053726 34.97267352 -78.00453726
v 59.70208812 34.97267352 -59.70208812
v 78.00453726 34.97267352 -32.31053726
v 91.38800000 8.5888208e-15 2.4207439e-16
v 84.43150272 8.5888208e-15 34.97267352
v 64.62107452 8.5888208e-15 64.62107452
v 34.97267352 8.5888208e-15 84.43150272
v 9.5571184e-15 8.5888208e-15 91.38800000
v -34.97267352 8.5888208e-15 84.43150272
v -64.62107452 8.5888208e-15 64.62107452
v -84.43150272 8.5888208e-15 34.97267352
v -91.38800000 8.5888208e-15 1.1433877e-14
v -84.43150272 8.5888208e-15 -34.97267352
v -64.62107452 8.5888208e-15 -64.62107452
v -34.97267352 8.5888208e-15 -84.43150272
v -1.2826486e-14 8.5888208e-15 -91.38800000
v 34.97267352 8.5888208e-15 -84.43150272
v 64.62107452 8.5888208e-15 -64.62107452
v 84.43150272 8.5888208e-15 -34.97267352
v 84.43150272 -34.97267352 2.4207439e-16
v 78.00453726 -34.97267352 32.31053726
v 59.70208812 -34.97267352 59.70208812
v 32.31053726 -34.97267352 78.00453726
v 9.1311558e-15 -34.97267352 84.43150272
v -32.31053726 -34.97267352 78.00453726
v -59.70208812 -34.97267352 59.70208812
v -78.00453726 -34.97267352 32.31053726
v -84.43150272 -34.97267352 1.0581951e-14
v -78.00453726 -34.97267352 -32.31053726
v -59.70208812 -34.97267352 -59.70208812
v -32.31053726 -34.97267352 -78.00453726
v -1.1548598e-14 -34.97267352 -84.43150272
v 32.31053726 -34.97267352 -78.00453726
v 59.70208812 -34.97267352 -59.70208812
v 78.00453726 -34.97267352 -32.31053726
v 64.62107452 -64.62107452 2.4207439e-16
v 59.70208812 -64.62107452 24.72941460
v 45.69400000 -64.62107452 45.69400000
v 24.72941460 -64.62107452 59.70208812
v 7.9181169e-15 -64.62107452 64.62107452
v -24.72941460 -64.62107452 59.70208812
v -45.69400000 -64.62107452 45.69400000
v -59.70208812 -64.62107452 24.72941460
v -64.62107452 -64.62107452 8.1558736e-15
v -59.70208812 -64.62107452 -24.72941460
v -45.69400000 -64.62107452 -45.69400000
v -24.72941460 -64.62107452 -59.70208812
v -7.9094815e-15 -64.62107452 -64.62107452
v 24.72941460 -64.62107452 -59.70208812
v 45.69400000 -64.62107452 -45.69400000
v 59.70208812 -64.62107452 -24.72941460
v 34.97267352 -84.43150272 2.4207439e-16
v 32.31053726 -84.43150272 13.38346274
v 24.72941460 -84.43150272 24.72941460
v 13.38346274 -84.43150272 32.31053726
v 6.1026760e-15 -84.43150272 34.97267352
v -13.38346274 -84.43150272 32.31053726
v -24.72941460 -84.43150272 24.72941460
v -32.31053726 -84.43150272 13.38346274
v -34.97267352 -84.43150272 4.5249917e-15
v -32.31053726 -84.43150272 -13.38346274
v -24.72941460 -84.43150272 -24.72941460
v -13.38346274 -84.43150272 -32.31053726
v -2.4631586e-15 -84.43150272 -34.97267352
v 13.38346274 -84.43150272 -32.31053726
v 24.72941460 -84.43150272 -24.72941460
v 32.31053726 -84.43150272 -13.38346274
v 3.9612173e-15 91.38800000 2.4207439e-16
v 3.9612173e-15 -91.38800000 2.4207439e-16
vt 0.0000000e+0 6.8000000e-4
vt 0.0000000e+0 7.2500000e-3
vt 0.0000000e+0 0.17150000
vt 0.0000000e+0 0.33575000
vt 0.0000000e+0 0.50000000
vt 0.0000000e+0 0.66425000
vt 0.0000000e+0 0.82850000
vt 0.0000000e+0 0.99275000
vt 0.0000000e+0 0.99932000
vt 6.0592242e-2 7.2500000e-3
vt 6.0592242e-2 0.99275000
vt 6.1453600e-2 0.17150000
vt 6.1453600e-2 0.82850000
vt 6.1696122e-2 0.33575000
vt 6.1696122e-2 0.66425000
vt 6.1756622e-2 0.50000000
vt 0.12145124 7.2500000e-3
vt 0.12145124 0.99275000
vt 0.12305935 0.17150000
vt 0.12305935 0.82850000
vt 0.12351040 0.33575000
vt 0.12351040 0.66425000
vt 0.12362280 0.50000000
vt 0.18281597 7.2500000e-3
vt 0.18281597 0.99275000
vt 0.18495024 0.17150000
vt 0.18495024 0.82850000
vt 0.18554538 0.33575000
vt 0.18554538 0.66425000
vt 0.18569346 0.50000000
vt 0.24486775 7.2500000e-3
vt 0.24486775 0.99275000
vt 0.24722176 0.17150000
vt 0.24722176 0.82850000
vt 0.24787354 0.33575000
vt 0.24787354 0.66425000
vt 0.24803539 0.50000000
vt 0.30769895 7.2500000e-3
vt 0.30769895 0.99275000
vt 0.30991595 0.17150000
vt 0.30991595 0.82850000
vt 0.31052530 0.33575000
vt 0.31052530 0.66425000
vt 0.31067631 0.50000000
vt 0.37128563 7.2500000e-3
vt 0.37128563 0.99275000
vt 0.37301084 0.17150000
vt 0.37301084 0.82850000
vt 0.37348198 0.33575000
vt 0.37348198 0.66425000
vt 0.37359854 0.50000000
vt 0.43547505 7.2500000e-3
vt 0.43547505 0.99275000
vt 0.43641929 0.17150000
vt 0.43641929 0.82850000
vt 0.43667603 0.33575000
vt 0.43667603 0.66425000
vt 0.43673947 0.50000000
vt 0.50000000 7.2500000e-3
vt 0.50000000 0.17150000
vt 0.50000000 0.33575000
vt 0.50000000 0.50000000
vt 0.50000000 0.66425000
vt 0.50000000 0.82850000
vt 0.50000000 0.99275000
vt 0.56326053 0.50000000
vt 0.56332397 0.33575000
vt 0.56332397 0.66425000
vt 0.56358071 0.17150000
vt 0.56358071 0.82850000
vt 0.56452495 7.2500000e-3
vt 0.56452495 0.99275000
vt 0.62640146 0.50000000
vt 0.62651802 0.33575000
vt 0.62651802 0.66425000
vt 0.62698916 0.17150000
vt 0.62698916 0.82850000
vt 0.62871437 7.2500000e-3
vt 0.62871437 0.99275000
vt 0.68932369 0.50000000
vt 0.68947470 0.33575000
vt 0.68947470 0.66425000
vt 0.69008405 0.17150000
vt 0.69008405 0.82850000
vt 0.69230105 7.2500000e-3
vt 0.69230105 0.99275000
vt 0.75196461 0.50000000
vt 0.75212646 0.33575000
vt 0.75212646 0.66425000
vt 0.75277824 0.17150000
vt 0.75277824 0.82850000
vt 0.75513225 7.2500000e-3
vt 0.75513225 0.99275000
vt 0.81430654 0.50000000
vt 0.81445462 0.33575000
vt 0.81445462 0.66425000
vt 0.81504976 0.17150000
vt 0.81504976 0.82850000
vt 0.81718403 7.2500000e-3
vt 0.81718403 0.99275000
vt 0.87637720 0.50000000
vt 0.87648960 0.33575000
vt 0.87648960 0.66425000
vt 0.87694065 0.17150000
vt 0.87694065 0.82850000
vt 0.87854876 7.2500000e-3
vt 0.87854876 0.99275000
vt 0.93824338 0.50000000
vt 0.93830388 0.33575000
vt 0.93830388 0.66425000
vt 0.93854640 0.17150000
vt 0.93854640 0.82850000
vt 0.93940776 7.2500000e-3
vt 0.93940776 0.99275000
vt 1.00000000 6.8000000e-4
vt 1.00000000 7.2500000e-3
vt 1.00000000 0.17150000
vt 1.00000000 0.33575000
vt 1.00000000 0.50000000
vt 1.00000000 0.66425000
vt 1.00000000 0.82850000
vt 1.00000000 0.99275000
vt 1.00000000 0.99932000
vn -0.38219484 -0.92408176 4.2238936e-16
vn -0.40886088 -0.89674490 -0.16935572
vn -0.27025256 -0.92408176 -0.27025256
vn -0.16935572 -0.89674490 -0.40886088
vn -7.0989809e-18 -0.92408176 -0.38219484
vn 0.16935572 -0.89674490 -0.40886088
vn 0.27025256 -0.92408176 -0.27025256
vn 0.40886088 -0.89674490 -0.16935572
vn 0.38219484 -0.92408176 3.5494904e-18
vn 0.40886088 -0.89674490 0.16935572
vn 0.27025256 -0.92408176 0.27025256
vn 0.16935572 -0.89674490 0.40886088
vn 4.6143376e-17 -0.92408176 0.38219484
vn -0.16935572 -0.89674490 0.40886088
vn -0.27025256 -0.92408176 0.27025256
vn -0.40886088 -0.89674490 0.16935572
vn -0.70658450 -0.70762868 9.1090125e-17
vn -0.65279895 -0.70762868 -0.27039818
vn -0.49963069 -0.70762868 -0.49963069
vn -0.27039818 -0.70762868 -0.65279895
vn 0.0000000e+0 -0.70762868 -0.70658450
vn 0.27039818 -0.70762868 -0.65279895
vn 0.49963069 -0.70762868 -0.49963069
vn 0.65279895 -0.70762868 -0.27039818
vn 0.70658450 -0.70762868 -9.4662286e-17
vn 0.65279895 -0.70762868 0.27039818
vn 0.49963069 -0.70762868 0.49963069
vn 0.27039818 -0.70762868 0.65279895
vn -4.2865941e-17 -0.70762868 0.70658450
vn -0.27039818 -0.70762868 0.65279895
vn -0.49963069 -0.70762868 0.49963069
vn -0.65279895 -0.70762868 0.27039818
vn -0.92368212 -0.38315969 2.0849634e-16
vn -0.85337100 -0.38315969 -0.35347784
vn -0.65314189 -0.38315969 -0.65314189
vn -0.35347784 -0.38315969 -0.85337100
vn 7.1895288e-18 -0.38315969 -0.92368212
vn 0.35347784 -0.38315969 -0.85337100
vn 0.65314189 -0.38315969 -0.65314189
vn 0.85337100 -0.38315969 -0.35347784
vn 0.92368212 -0.38315969 -1.4379058e-17
vn 0.85337100 -0.38315969 0.35347784
vn 0.65314189 -0.38315969 0.65314189
vn 0.35347784 -0.38315969 0.85337100
vn 3.8823456e-16 -0.38315969 0.92368212
vn -0.35347784 -0.38315969 0.85337100
vn -0.65314189 -0.38315969 0.65314189
vn -0.85337100 -0.38315969 0.35347784
vn -1.00000000 -2.5228744e-17 2.6670386e-16
vn -0.92387953 -7.2082126e-18 -0.38268343
vn -0.70710678 -1.4416425e-17 -0.70710678
vn -0.38268343 -4.3249275e-17 -0.92387953
vn 2.5228744e-17 -1.4416425e-17 -1.00000000
vn 0.38268343 7.2082126e-18 -0.92387953
vn 0.70710678 0.0000000e+0 -0.70710678
vn 0.92387953 0.0000000e+0 -0.38268343
vn 1.00000000 1.0812319e-17 -2.8832850e-17
vn 0.92387953 0.0000000e+0 0.38268343
vn 0.70710678 3.6041063e-18 0.70710678
vn 0.38268343 7.2082126e-18 0.92387953
vn 4.1807633e-16 -3.6041063e-18 1.00000000
vn -0.38268343 -2.8832850e-17 0.92387953
vn -0.70710678 -7.2082126e-18 0.70710678
vn -0.92387953 0.0000000e+0 0.38268343
vn -0.92368212 0.38315969 2.5163351e-16
vn -0.85337100 0.38315969 -0.35347784
vn -0.65314189 0.38315969 -0.65314189
vn -0.35347784 0.38315969 -0.85337100
vn 1.4379058e-17 0.38315969 -0.92368212
vn 0.35347784 0.38315969 -0.85337100
vn 0.65314189 0.38315969 -0.65314189
vn 0.85337100 0.38315969 -0.35347784
vn 0.92368212 0.38315969 -2.8758115e-17
vn 0.85337100 0.38315969 0.35347784
vn 0.65314189 0.38315969 0.65314189
vn 0.35347784 0.38315969 0.85337100
vn 1.9411728e-16 0.38315969 0.92368212
vn -0.35347784 0.38315969 0.85337100
vn -0.65314189 0.38315969 0.65314189
vn -0.85337100 0.38315969 0.35347784
vn -0.70658450 0.70762868 7.1443235e-17
vn -0.65279895 0.70762868 -0.27039818
vn -0.49963069 0.70762868 -0.49963069
vn -0.27039818 0.70762868 -0.65279895
vn -1.0716485e-17 0.70762868 -0.70658450
vn 0.27039818 0.70762868 -0.65279895
vn 0.49963069 0.70762868 -0.49963069
vn 0.65279895 0.70762868 -0.27039818
vn 0.70658450 0.70762868 -6.0726750e-17
vn 0.65279895 0.70762868 0.27039818
vn 0.49963069 0.70762868 0.49963069
vn 0.27039818 0.70762868 0.65279895
vn 1.2145350e-16 0.70762868 0.70658450
vn -0.27039818 0.70762868 0.65279895
vn -0.49963069 0.70762868 0.49963069
vn -0.65279895 0.70762868 0.27039818
vn -0.38219484 0.92408176 -6.7440318e-17
vn -0.40886088 0.89674490 -0.16935572
vn -0.27025256 0.92408176 -0.27025256
vn -0.16935572 0.89674490 -0.40886088
vn -1.7747452e-17 0.92408176 -0.38219484
vn 0.16935572 0.89674490 -0.40886088
vn 0.27025256 0.92408176 -0.27025256
vn 0.40886088 0.89674490 -0.16935572
vn 0.38219484 0.92408176 1.5262809e-16
vn 0.40886088 0.89674490 0.16935572
vn 0.27025256 0.92408176 0.27025256
vn 0.16935572 0.89674490 0.40886088
vn 3.5494904e-18 0.92408176 0.38219484
vn -0.16935572 0.89674490 0.40886088
vn -0.27025256 0.92408176 0.27025256
vn -0.40886088 0.89674490 0.16935572
vn 1.7700400e-18 -1.00000000 0.0000000e+0
vn 1.7700400e-17 1.00000000 8.6731958e-17
g sphere1_sphere1_auv
usemtl sphere1_auv
s 1
f 1/59/1 17/60/17 2/71/2
f 1/59/1 113/1/113 16/52/16
f 2/71/2 17/60/17 18/69/18
f 2/71/2 19/76/19 3/78/3
f 2/71/2 113/115/113 1/59/1
f 3/78/3 19/76/19 4/85/4
f 3/78/3 113/115/113 2/71/2
f 4/85/4 19/76/19 20/83/20
f 4/85/4 21/90/21 5/92/5
f 4/85/4 113/115/113 3/78/3
f 5/92/5 21/90/21 6/99/6
f 5/92/5 113/115/113 4/85/4
f 6/99/6 21/90/21 22/97/22
f 6/99/6 23/104/23 7/106/7
f 6/99/6 113/115/113 5/92/5
f 7/106/7 23/104/23 8/113/8
f 7/106/7 113/115/113 6/99/6
f 8/113/8 23/104/23 24/111/24
f 8/113/8 25/117/25 9/116/9
f 8/113/8 113/115/113 7/106/7
f 9/2/9 25/3/25 10/10/10
f 9/116/9 113/115/113 8/113/8
f 10/10/10 25/3/25 26/12/26
f 10/10/10 27/19/27 11/17/11
f 10/10/10 113/1/113 9/2/9
f 11/17/11 27/19/27 12/24/12
f 11/17/11 113/1/113 10/10/10
f 12/24/12 27/19/27 28/26/28
f 12/24/12 29/33/29 13/31/13
f 12/24/12 113/1/113 11/17/11
f 13/31/13 29/33/29 14/38/14
f 13/31/13 113/1/113 12/24/12
f 14/38/14 29/33/29 30/40/30
f 14/38/14 31/47/31 15/45/15
f 14/38/14 113/1/113 13/31/13
f 15/45/15 31/47/31 16/52/16
f 15/45/15 113/1/113 14/38/14
f 16/52/16 17/60/17 1/59/1
f 16/52/16 31/47/31 32/54/32
f 16/52/16 113/1/113 15/45/15
f 17/60/17 34/67/34 18/69/18
f 17/60/17 48/56/48 33/61/33
f 18/69/18 19/76/19 2/71/2
f 18/69/18 34/67/34 19/76/19
f 19/76/19 34/67/34 35/74/35
f 19/76/19 36/81/36 20/83/20
f 20/83/20 21/90/21 4/85/4
f 20/83/20 36/81/36 21/90/21
f 21/90/21 36/81/36 37/88/37
f 21/90/21 38/95/38 22/97/22
f 22/97/22 23/104/23 6/99/6
f 22/97/22 38/95/38 23/104/23
f 23/104/23 38/95/38 39/102/39
f 23/104/23 40/109/40 24/111/24
f 24/111/24 25/117/25 8/113/8
f 24/111/24 40/109/40 25/117/25
f 25/117/25 40/109/40 41/118/41
f 25/3/25 42/14/42 26/12/26
f 26/12/26 27/19/27 10/10/10
f 26/12/26 42/14/42 27/19/27
f 27/19/27 42/14/42 43/21/43
f 27/19/27 44/28/44 28/26/28
f 28/26/28 29/33/29 12/24/12
f 28/26/28 44/28/44 29/33/29
f 29/33/29 44/28/44 45/35/45
f 29/33/29 46/42/46 30/40/30
f 30/40/30 31/47/31 14/38/14
f 30/40/30 46/42/46 31/47/31
f 31/47/31 46/42/46 47/49/47
f 31/47/31 48/56/48 32/54/32
f 32/54/32 17/60/17 16/52/16
f 32/54/32 48/56/48 17/60/17
f 33/61/33 34/67/34 17/60/17
f 33/61/33 49/62/49 34/67/34
f 34/67/34 49/62/49 50/66/50
f 34/67/34 51/73/51 35/74/35
f 35/74/35 36/81/36 19/76/19
f 35/74/35 51/73/51 36/81/36
f 36/81/36 51/73/51 52/80/52
f 36/81/36 53/87/53 37/88/37
f 37/88/37 38/95/38 21/90/21
f 37/88/37 53/87/53 38/95/38
f 38/95/38 53/87/53 54/94/54
f 38/95/38 55/101/55 39/102/39
f 39/102/39 40/109/40 23/104/23
f 39/102/39 55/101/55 40/109/40
f 40/109/40 55/101/55 56/108/56
f 40/109/40 57/119/57 41/118/41
f 41/4/41 42/14/42 25/3/25
f 41/4/41 57/5/57 42/14/42
f 42/14/42 57/5/57 58/16/58
f 42/14/42 59/23/59 43/21/43
f 43/21/43 44/28/44 27/19/27
f 43/21/43 59/23/59 44/28/44
f 44/28/44 59/23/59 60/30/60
f 44/28/44 61/37/61 45/35/45
f 45/35/45 46/42/46 29/33/29
f 45/35/45 61/37/61 46/42/46
f 46/42/46 61/37/61 62/44/62
f 46/42/46 63/51/63 47/49/47
f 47/49/47 48/56/48 31/47/31
f 47/49/47 63/51/63 48/56/48
f 48/56/48 49/62/49 33/61/33
f 48/56/48 63/51/63 64/58/64
f 49/62/49 66/68/66 50/66/50
f 49/62/49 80/57/80 65/63/65
f 50/66/50 51/73/51 34/67/34
f 50/66/50 66/68/66 51/73/51
f 51/73/51 66/68/66 67/75/67
f 51/73/51 68/82/68 52/80/52
f 52/80/52 53/87/53 36/81/36
f 52/80/52 68/82/68 53/87/53
f 53/87/53 68/82/68 69/89/69
f 53/87/53 70/96/70 54/94/54
f 54/94/54 55/101/55 38/95/38
f 54/94/54 70/96/70 55/101/55
f 55/101/55 70/96/70 71/103/71
f 55/101/55 72/110/72 56/108/56
f 56/108/56 57/119/57 40/109/40
f 56/108/56 72/110/72 57/119/57
f 57/119/57 72/110/72 73/120/73
f 57/5/57 74/15/74 58/16/58
f 58/16/58 59/23/59 42/14/42
f 58/16/58 74/15/74 59/23/59
f 59/23/59 74/15/74 75/22/75
f 59/23/59 76/29/76 60/30/60
f 60/30/60 61/37/61 44/28/44
f 60/30/60 76/29/76 61/37/61
f 61/37/61 76/29/76 77/36/77
f 61/37/61 78/43/78 62/44/62
f 62/44/62 63/51/63 46/42/46
f 62/44/62 78/43/78 63/51/63
f 63/51/63 78/43/78 79/50/79
f 63/51/63 80/57/80 64/58/64
f 64/58/64 49/62/49 48/56/48
f 64/58/64 80/57/80 49/62/49
f 65/63/65 66/68/66 49/62/49
f 65/63/65 81/64/81 66/68/66
f 66/68/66 81/64/81 82/70/82
f 66/68/66 83/77/83 67/75/67
f 67/75/67 68/82/68 51/73/51
f 67/75/67 83/77/83 68/82/68
f 68/82/68 83/77/83 84/84/84
f 68/82/68 85/91/85 69/89/69
f 69/89/69 70/96/70 53/87/53
f 69/89/69 85/91/85 70/96/70
f 70/96/70 85/91/85 86/98/86
f 70/96/70 87/105/87 71/103/71
f 71/103/71 72/110/72 55/101/55
f 71/103/71 87/105/87 72/110/72
f 72/110/72 87/105/87 88/112/88
f 72/110/72 89/121/89 73/120/73
f 73/6/73 74/15/74 57/5/57
f 73/6/73 89/7/89 74/15/74
f 74/15/74 89/7/89 90/13/90
f 74/15/74 91/20/91 75/22/75
f 75/22/75 76/29/76 59/23/59
f 75/22/75 91/20/91 76/29/76
f 76/29/76 91/20/91 92/27/92
f 76/29/76 93/34/93 77/36/77
f 77/36/77 78/43/78 61/37/61
f 77/36/77 93/34/93 78/43/78
f 78/43/78 93/34/93 94/41/94
f 78/43/78 95/48/95 79/50/79
f 79/50/79 80/57/80 63/51/63
f 79/50/79 95/48/95 80/57/80
f 80/57/80 81/64/81 65/63/65
f 80/57/80 95/48/95 96/55/96
f 81/64/81 98/72/98 82/70/82
f 81/64/81 112/53/112 97/65/97
f 82/70/82 83/77/83 66/68/66
f 82/70/82 98/72/98 83/77/83
f 83/77/83 98/72/98 99/79/99
f 83/77/83 100/86/100 84/84/84
f 84/84/84 85/91/85 68/82/68
f 84/84/84 100/86/100 85/91/85
f 85/91/85 100/86/100 101/93/101
f 85/91/85 102/100/102 86/98/86
f 86/98/86 87/105/87 70/96/70
f 86/98/86 102/100/102 87/105/87
f 87/105/87 102/100/102 103/107/103
f 87/105/87 104/114/104 88/112/88
f 88/112/88 89/121/89 72/110/72
f 88/112/88 104/114/104 89/121/89
f 89/121/89 104/114/104 105/122/105
f 89/7/89 106/11/106 90/13/90
f 90/13/90 91/20/91 74/15/74
f 90/13/90 106/11/106 91/20/91
f 91/20/91 106/11/106 107/18/107
f 91/20/91 108/25/108 92/27/92
f 92/27/92 93/34/93 76/29/76
f 92/27/92 108/25/108 93/34/93
f 93/34/93 108/25/108 109/32/109
f 93/34/93 110/39/110 94/41/94
f 94/41/94 95/48/95 78/43/78
f 94/41/94 110/39/110 95/48/95
f 95/48/95 110/39/110 111/46/111
f 95/48/95 112/53/112 96/55/96
f 96/55/96 81/64/81 80/57/80
f 96/55/96 112/53/112 81/64/81
f 97/65/97 98/72/98 81/64/81
f 97/65/97 114/123/114 98/72/98
f 98/72/98 114/123/114 99/79/99
f 99/79/99 100/86/100 83/77/83
f 99/79/99 114/123/114 100/86/100
f 100/86/100 114/123/114 101/93/101
f 101/93/101 102/100/102 85/91/85
f 101/93/101 114/123/114 102/100/102
f 102/100/102 114/123/114 103/107/103
f 103/107/103 104/114/104 87/105/87
f 103/107/103 114/123/114 104/114/104
f 104/114/104 114/123/114 105/122/105
f 105/8/105 106/11/106 89/7/89
f 105/8/105 114/9/114 106/11/106
f 106/11/106 114/9/114 107/18/107
f 107/18/107 108/25/108 91/20/91
f 107/18/107 114/9/114 108/25/108
f 108/25/108 114/9/114 109/32/109
f 109/32/109 110/39/110 93/34/93
f 109/32/109 114/9/114 110/39/110
f 110/39/110 114/9/114 111/46/111
f 111/46/111 112/53/112 95/48/95
f 111/46/111 114/9/114 112/53/112
f 112/53/112 114/9/114 97/65/97
