# Exported from Wings 3D 1.4.1
mtllib floor.mtl
o cube3
#4 vertices, 2 faces
v 37.49105579 -5.07449599 37.49105579
v 37.49105579 -5.07449599 -37.49105579
v -37.49105579 -5.07449599 37.49105579
v -37.49105579 -5.07449599 -37.49105579
vt -1.10537155 -1.10537155
vt -1.10537155 2.10537155
vt 2.10537155 -1.10537155
vt 2.10537155 2.10537155
vn 0.0000000e+0 1.00000000 0.0000000e+0
vn 0.0000000e+0 1.00000000 0.0000000e+0
vn 0.0000000e+0 1.00000000 0.0000000e+0
vn 0.0000000e+0 1.00000000 0.0000000e+0
vn 0.0000000e+0 1.00000000 0.0000000e+0
vn 0.0000000e+0 1.00000000 0.0000000e+0
g cube3_cube3_auv
usemtl cube3_auv
s 2
f 1/2/1 2/1/3 3/4/5
f 4/3/6 3/4/4 2/1/2
