# Exported from Wings 3D 1.4.1
mtllib cloud_sheet3.mtl
o cloud_sheet3
#10 vertices, 8 faces
v 1.46405910 0.45710136 -0.10557152
v 1.39071171 0.57489306 -0.25086540
v -1.00222064 0.81286662 1.42788168
v -1.07556803 0.93065832 1.28258780
v 0.32919073 1.10057358 0.71118884
v 0.40253812 0.98278188 0.85648271
v -0.30700199 0.99335875 1.22324819
v -0.38034937 1.11115046 1.07795431
v 0.95417714 0.91864262 0.24818877
v 1.02752453 0.80085092 0.39348264
vt -2.60725145 0.51760758
vt -2.60725145 0.33967462
vt -1.18898486 0.51760758
vt -1.18898486 0.33967462
vt 0.48338889 0.51760758
vt 0.48338889 0.33967462
vt 2.15576264 0.51760758
vt 2.15576264 0.33967462
vt 3.57402923 0.51760758
vt 3.57402923 0.33967462
vn -0.72462174 -0.66664735 -0.17465580
vn -0.72462174 -0.66664735 -0.17465580
vn -0.72462174 -0.66664735 -0.17465580
vn 1.4130505e-2 -0.77321368 -0.63398812
vn 1.4130505e-2 -0.77321368 -0.63398812
vn 1.4130505e-2 -0.77321368 -0.63398812
vn -0.39521152 -0.80092426 -0.44980906
vn -0.39521152 -0.80092426 -0.44980906
vn -0.39521152 -0.80092426 -0.44980906
vn -0.39521152 -0.80092426 -0.44980906
vn -0.39521152 -0.80092426 -0.44980906
vn -0.39521152 -0.80092426 -0.44980906
vn -0.13402339 -0.80179884 -0.58237132
vn -0.13402339 -0.80179884 -0.58237132
vn -0.13402339 -0.80179884 -0.58237132
vn -0.13402339 -0.80179884 -0.58237132
vn -0.13402339 -0.80179884 -0.58237132
vn -0.13402339 -0.80179884 -0.58237132
vn -0.62249337 -0.73133617 -0.27865644
vn -0.62249337 -0.73133617 -0.27865644
vn -0.62249337 -0.73133617 -0.27865644
vn -0.62249337 -0.73133617 -0.27865644
vn -0.62249337 -0.73133617 -0.27865644
vn -0.62249337 -0.73133617 -0.27865644
g cloud_sheet3_cloud_sheet
usemtl cloud_sheet
s 2
f 1/9/2 9/8/22 2/10/3
f 3/1/4 8/4/16 7/3/14
f 4/2/6 8/4/18 3/1/5
f 5/6/8 6/5/12 8/4/17
f 5/6/7 9/8/21 6/5/11
f 6/5/9 9/8/19 10/7/23
f 7/3/13 8/4/15 6/5/10
f 10/7/24 9/8/20 1/9/1
