# Exported from Wings 3D 1.4.1
mtllib cloud_sheet4.mtl
o cloud_sheet4
#10 vertices, 8 faces
v -1.32296730 0.58667419 -0.17241892
v -1.33646569 0.58667419 -6.4660795e-2
v 1.58019141 0.58667419 0.19124702
v 1.56669302 0.58667419 0.29900515
v 0.11511367 1.02091986 0.11717218
v 0.12861205 1.02091986 9.4140498e-3
v 0.91407491 0.91394715 0.10780553
v 0.90057653 0.91394715 0.21556366
v -0.67034919 0.91394715 1.8780693e-2
v -0.65685081 0.91394715 -8.8977434e-2
vt -3.78028740 0.35034092
vt -3.78028740 0.17240795
vt -1.90419440 0.35034092
vt -1.90419440 0.17240795
vt 0.30803333 0.35034092
vt 0.30803333 0.17240795
vt 2.52026106 0.35034092
vt 2.52026106 0.17240795
vt 4.39635406 0.35034092
vt 4.39635406 0.17240795
vn 0.43480773 -0.89887465 5.4466456e-2
vn 0.43480773 -0.89887465 5.4466456e-2
vn -0.43480773 -0.89887465 -5.4466456e-2
vn -0.43480773 -0.89887465 -5.4466456e-2
vn -5.6015712e-17 -1.00000000 -7.9297243e-16
vn -1.4003928e-17 -1.00000000 2.5119546e-16
vn -0.28749899 -0.95710362 -3.6013736e-2
vn -0.28749899 -0.95710362 -3.6013736e-2
vn 0.28749899 -0.95710362 3.6013736e-2
vn 0.28749899 -0.95710362 3.6013736e-2
g cloud_sheet4_cloud_sheet
usemtl cloud_sheet
s 1
f 1/9/1 9/8/9 2/10/2
f 3/1/3 8/4/8 7/3/7
f 4/2/4 8/4/8 3/1/3
f 5/6/5 6/5/6 8/4/8
f 5/6/5 9/8/9 6/5/6
f 6/5/6 9/8/9 10/7/10
f 7/3/7 8/4/8 6/5/6
f 10/7/10 9/8/9 1/9/1
