# Exported from Wings 3D 1.4.1
mtllib cloud_sheet5.mtl
o cloud_sheet5
#10 vertices, 8 faces
v -1.41446312 0.59201162 -0.51157946
v -1.47361021 0.52996312 -0.44490393
v 0.86597435 0.37400505 1.30849237
v 0.80682726 0.31195655 1.37516790
v -0.46786439 0.77587703 0.67612990
v -0.40871731 0.83792553 0.60945437
v 0.24139173 0.69151204 1.04990559
v 0.18224465 0.62946354 1.11658112
v -1.05172092 0.74742889 0.13172361
v -0.99257383 0.80947738 6.5048081e-2
vt -2.15313514 0.17744092
vt -2.15313514 -4.9204998e-4
vt -1.05335649 0.17744092
vt -1.05335649 -4.9204998e-4
vt 0.24346667 0.17744092
vt 0.24346667 -4.9204998e-4
vt 1.54028982 0.17744092
vt 1.54028982 -4.9204998e-4
vt 2.64006847 0.17744092
vt 2.64006847 -4.9204998e-4
vn 0.61989707 -0.76731821 -0.16416575
vn 0.61989707 -0.76731821 -0.16416575
vn -6.3187774e-2 -0.70201627 -0.70935214
vn -6.3187774e-2 -0.70201627 -0.70935214
vn 0.30967015 -0.81731890 -0.48589527
vn 0.30967015 -0.81731890 -0.48589527
vn 7.0555336e-2 -0.76066975 -0.64529333
vn 7.0555336e-2 -0.76066975 -0.64529333
vn 0.52221750 -0.80384801 -0.28481092
vn 0.52221750 -0.80384801 -0.28481092
g cloud_sheet5_cloud_sheet
usemtl cloud_sheet
s 1
f 1/9/1 9/8/9 2/10/2
f 3/1/3 8/4/8 7/3/7
f 4/2/4 8/4/8 3/1/3
f 5/6/5 6/5/6 8/4/8
f 5/6/5 9/8/9 6/5/6
f 6/5/6 9/8/9 10/7/10
f 7/3/7 8/4/8 6/5/6
f 10/7/10 9/8/9 1/9/1
